<?xml version="1.0" encoding="utf-8"?>
<!-- Generator: Adobe Illustrator 27.5.0, SVG Export Plug-In . SVG Version: 6.00 Build 0)  -->
<svg version="1.1" id="Layer_2_00000172431501669907237460000011423275401862883978_"
	 xmlns="http://www.w3.org/2000/svg" xmlns:xlink="http://www.w3.org/1999/xlink" x="0px" y="0px" viewBox="0 0 784 72"
	 style="enable-background:new 0 0 784 72;" xml:space="preserve">
<style type="text/css">
	.st0{fill:#01B3D1;}
	.st1{fill:#FFFFFF;}
	.st2{font-family:'Nobel-Bold';}
	.st3{font-size:8.67px;}
	.st4{fill:#231F20;}
	.st5{font-family:'Nobel-Book';}
	.st6{font-size:9.46px;}
	.st7{letter-spacing:-1;}
	.st8{fill:#D9375E;}
	.st9{fill:#669C50;}
	.st10{fill:#010101;}
	.st11{fill:#493591;}
	.st12{fill:#F2CF66;}
</style>
<rect x="2" y="1.6" class="st0" width="152.6" height="13"/>
<text transform="matrix(1 0 0 1 13.65 10.925)" class="st1 st2 st3">P</text>
<text transform="matrix(1 0 0 1 19.11 10.925)" class="st1 st2 st3">R</text>
<text transform="matrix(1 0 0 1 24.69 10.925)" class="st1 st2 st3">OFE</text>
<text transform="matrix(1 0 0 1 41.9 10.925)" class="st1 st2 st3">S</text>
<text transform="matrix(1 0 0 1 47 10.925)" class="st1 st2 st3">SIONAL DEVE</text>
<text transform="matrix(1 0 0 1 105.33 10.925)" class="st1 st2 st3">L</text>
<text transform="matrix(1 0 0 1 109.72 10.925)" class="st1 st2 st3">OPMENT</text>
<text transform="matrix(1 0 0 1 8.9978 26.1156)" class="st4 st5 st6 st7">T</text>
<text transform="matrix(1 0 0 1 12.5178 26.1156)" class="st4 st5 st6">ools for </text>
<text transform="matrix(1 0 0 1 41.2478 26.1156)" class="st4 st5 st6 st7">T</text>
<text transform="matrix(1 0 0 1 44.7478 26.1156)" class="st4 st5 st6">eache</text>
<text transform="matrix(1 0 0 1 66.7278 26.1156)" class="st4 st5 st6">r</text>
<text transform="matrix(1 0 0 1 69.8478 26.1156)" class="st4 st5 st6">s</text>
<text transform="matrix(1 0 0 1 8.9978 36.3656)" class="st4 st5 st6 st7">T</text>
<text transform="matrix(1 0 0 1 12.4978 36.3656)" class="st4 st5 st6">eaching A</text>
<text transform="matrix(1 0 0 1 49.2678 36.3656)" class="st4 st5 st6">r</text>
<text transform="matrix(1 0 0 1 52.5778 36.3656)" class="st4 st5 st6">tist </text>
<text transform="matrix(1 0 0 1 64.8078 36.3656)" class="st4 st5 st6 st7">T</text>
<text transform="matrix(1 0 0 1 68.1878 36.3656)" class="st4 st5 st6">r</text>
<text transform="matrix(1 0 0 1 71.2679 36.3656)" class="st4 st5 st6">aining</text>
<text transform="matrix(1 0 0 1 8.9978 46.6156)" class="st4 st5 st6">Mariachi Insti</text>
<text transform="matrix(1 0 0 1 57.4578 46.6156)" class="st4 st5 st6">t</text>
<text transform="matrix(1 0 0 1 59.9578 46.6156)" class="st4 st5 st6">u</text>
<text transform="matrix(1 0 0 1 64.4678 46.6156)" class="st4 st5 st6">te</text>
<text transform="matrix(1 0 0 1 8.9978 56.8656)" class="st4 st5 st6">IDEA in the Cla</text>
<text transform="matrix(1 0 0 1 65.5278 56.8656)" class="st4 st5 st6">s</text>
<text transform="matrix(1 0 0 1 68.9378 56.8656)" class="st4 st5 st6">s</text>
<text transform="matrix(1 0 0 1 72.4478 56.8656)" class="st4 st5 st6">r</text>
<text transform="matrix(1 0 0 1 75.4778 56.8656)" class="st4 st5 st6">oom</text>
<rect x="159" y="1.6" class="st8" width="152.6" height="13"/>
<text transform="matrix(1 0 0 1 182.5902 10.9252)" class="st1 st2 st3">A</text>
<text transform="matrix(1 0 0 1 188.9202 10.9252)" class="st1 st2 st3">R</text>
<text transform="matrix(1 0 0 1 194.5302 10.9252)" class="st1 st2 st3">TI</text>
<text transform="matrix(1 0 0 1 202.0402 10.9252)" class="st1 st2 st3">S</text>
<text transform="matrix(1 0 0 1 207.1802 10.9252)" class="st1 st2 st3">T</text>
<text transform="matrix(1 0 0 1 211.7202 10.9252)" class="st1 st2 st3">S IN THE </text>
<text transform="matrix(1 0 0 1 249.5002 10.9252)" class="st1 st2 st3">S</text>
<text transform="matrix(1 0 0 1 254.6402 10.9252)" class="st1 st2 st3">CHOOLS</text>
<text transform="matrix(1 0 0 1 167.8785 24.3343)" class="st4 st5 st6">A</text>
<text transform="matrix(1 0 0 1 174.2885 24.3343)" class="st4 st5 st6">r</text>
<text transform="matrix(1 0 0 1 177.6085 24.3343)" class="st4 st5 st6">ts Integ</text>
<text transform="matrix(1 0 0 1 203.8185 24.3343)" class="st4 st5 st6">r</text>
<text transform="matrix(1 0 0 1 206.8885 24.3343)" class="st4 st5 st6">ation </text>
<text transform="matrix(1 0 0 1 226.5885 24.3343)" class="st4 st5 st6">R</text>
<text transform="matrix(1 0 0 1 231.8685 24.3343)" class="st4 st5 st6">esidencies</text>
<text transform="matrix(1 0 0 1 167.8785 34.5843)" class="st4 st5 st6">A</text>
<text transform="matrix(1 0 0 1 174.2885 34.5843)" class="st4 st5 st6">r</text>
<text transform="matrix(1 0 0 1 177.6085 34.5843)" class="st4 st5 st6">ts for All </text>
<text transform="matrix(1 0 0 1 209.4385 34.5843)" class="st4 st5 st6">R</text>
<text transform="matrix(1 0 0 1 214.7185 34.5843)" class="st4 st5 st6">esidencies</text>
<rect x="315.7" y="1.6" class="st9" width="152.6" height="13"/>
<text transform="matrix(1 0 0 1 356.4293 10.915)" class="st1 st2 st3">PER</text>
<text transform="matrix(1 0 0 1 372.8193 10.915)" class="st1 st2 st3">F</text>
<text transform="matrix(1 0 0 1 377.4293 10.915)" class="st1 st2 st3">ORMANCES</text>
<text transform="matrix(1 0 0 1 322.6303 24.269)" class="st10 st5 st6">School Sh</text>
<text transform="matrix(1 0 0 1 358.6303 24.269)" class="st10 st5 st6">o</text>
<text transform="matrix(1 0 0 1 363.2403 24.269)" class="st10 st5 st6">w</text>
<text transform="matrix(1 0 0 1 369.2003 24.269)" class="st10 st5 st6">s</text>
<text transform="matrix(1 0 0 1 322.6303 34.519)" class="st10 st5 st6">F</text>
<text transform="matrix(1 0 0 1 326.6803 34.519)" class="st10 st5 st6">amily </text>
<text transform="matrix(1 0 0 1 347.3303 34.519)" class="st10 st5 st6">F</text>
<text transform="matrix(1 0 0 1 351.5703 34.519)" class="st10 st5 st6">un Series</text>
<rect x="472.3" y="1.6" class="st11" width="152.6" height="13"/>
<text transform="matrix(1 0 0 1 490.9793 10.915)" class="st1 st2 st3">BE</text>
<text transform="matrix(1 0 0 1 502.0093 10.915)" class="st1 st2 st3">Y</text>
<text transform="matrix(1 0 0 1 507.5593 10.915)" class="st1 st2 st3">OND THE C</text>
<text transform="matrix(1 0 0 1 555.2193 10.915)" class="st1 st2 st3">L</text>
<text transform="matrix(1 0 0 1 560.0693 10.915)" class="st1 st2 st3">A</text>
<text transform="matrix(1 0 0 1 566.3193 10.915)" class="st1 st2 st3">S</text>
<text transform="matrix(1 0 0 1 571.4193 10.915)" class="st1 st2 st3">S</text>
<text transform="matrix(1 0 0 1 576.7393 10.915)" class="st1 st2 st3">R</text>
<text transform="matrix(1 0 0 1 582.3193 10.915)" class="st1 st2 st3">OOM</text>
<text transform="matrix(1 0 0 1 477.5961 24.2559)" class="st4 st5 st6">TEAM</text>
<text transform="matrix(1 0 0 1 477.5961 34.5059)" class="st4 st5 st6">Music for Schools</text>
<text transform="matrix(1 0 0 1 477.5961 44.7559)" class="st4 st5 st6">Mariachi Ensemble</text>
<text transform="matrix(1 0 0 1 477.5961 55.0059)" class="st4 st5 st6">Summer Camps</text>
<text transform="matrix(1 0 0 1 477.5961 65.2559)" class="st4 st5 st6">Master Cla</text>
<text transform="matrix(1 0 0 1 518.2761 65.2559)" class="st4 st5 st6">s</text>
<text transform="matrix(1 0 0 1 521.6862 65.2559)" class="st4 st5 st6">ses &amp; S</text>
<text transform="matrix(1 0 0 1 547.7161 65.2559)" class="st4 st5 st6">t</text>
<text transform="matrix(1 0 0 1 550.2161 65.2559)" class="st4 st5 st6">udent Clinics</text>
<rect x="628.9" y="1.6" class="st12" width="152.6" height="13"/>
<text transform="matrix(1 0 0 1 641.2993 10.915)" class="st1 st2 st3">C</text>
<text transform="matrix(1 0 0 1 647.4893 10.915)" class="st1 st2 st3">OMMUNITY </text>
<text transform="matrix(1 0 0 1 700.1393 10.915)" class="st1 st2 st3">C</text>
<text transform="matrix(1 0 0 1 706.3293 10.915)" class="st1 st2 st3">ONNECTIONS</text>
<text transform="matrix(1 0 0 1 635.0509 24.381)" class="st4 st5 st6">P</text>
<text transform="matrix(1 0 0 1 639.5909 24.381)" class="st4 st5 st6">osadas N</text>
<text transform="matrix(1 0 0 1 673.4109 24.381)" class="st4 st5 st6">a</text>
<text transform="matrix(1 0 0 1 677.6409 24.381)" class="st4 st5 st6">videña</text>
<text transform="matrix(1 0 0 1 635.0509 34.631)" class="st4 st5 st6">Fies</text>
<text transform="matrix(1 0 0 1 649.4308 34.631)" class="st4 st5 st6">t</text>
<text transform="matrix(1 0 0 1 651.9208 34.631)" class="st4 st5 st6">a de Independcia</text>
<text transform="matrix(1 0 0 1 635.0509 44.881)" class="st4 st5 st6">Sing-Along</text>
<text transform="matrix(1 0 0 1 635.0509 55.131)" class="st4 st5 st6">Gui</text>
<text transform="matrix(1 0 0 1 649.0508 55.131)" class="st4 st5 st6">t</text>
<text transform="matrix(1 0 0 1 651.5409 55.131)" class="st4 st5 st6">ar Cla</text>
<text transform="matrix(1 0 0 1 673.8809 55.131)" class="st4 st5 st6">s</text>
<text transform="matrix(1 0 0 1 677.2909 55.131)" class="st4 st5 st6">s</text>
</svg>
